<svg width="13" height="13" viewBox="0 0 13 13" fill="none" xmlns="http://www.w3.org/2000/svg">
<path d="M0.74 6.44C0.74 5.33333 0.966667 4.35333 1.42 3.5C1.88667 2.64667 2.51333 1.98667 3.3 1.52C4.1 1.04 4.98 0.8 5.94 0.8C6.80667 0.8 7.56 0.973333 8.2 1.32C8.85333 1.65333 9.37333 2.07333 9.76 2.58V0.98H12.06V12H9.76V10.36C9.37333 10.88 8.84667 11.3133 8.18 11.66C7.51333 12.0067 6.75333 12.18 5.9 12.18C4.95333 12.18 4.08667 11.94 3.3 11.46C2.51333 10.9667 1.88667 10.2867 1.42 9.42C0.966667 8.54 0.74 7.54667 0.74 6.44ZM9.76 6.48C9.76 5.72 9.6 5.06 9.28 4.5C8.97333 3.94 8.56667 3.51333 8.06 3.22C7.55333 2.92667 7.00667 2.78 6.42 2.78C5.83333 2.78 5.28667 2.92667 4.78 3.22C4.27333 3.5 3.86 3.92 3.54 4.48C3.23333 5.02667 3.08 5.68 3.08 6.44C3.08 7.2 3.23333 7.86667 3.54 8.44C3.86 9.01333 4.27333 9.45333 4.78 9.76C5.3 10.0533 5.84667 10.2 6.42 10.2C7.00667 10.2 7.55333 10.0533 8.06 9.76C8.56667 9.46667 8.97333 9.04 9.28 8.48C9.6 7.90667 9.76 7.24 9.76 6.48Z" fill="white"/>
<path d="M0.74 6.44C0.74 5.33333 0.966667 4.35333 1.42 3.5C1.88667 2.64667 2.51333 1.98667 3.3 1.52C4.1 1.04 4.98 0.8 5.94 0.8C6.80667 0.8 7.56 0.973333 8.2 1.32C8.85333 1.65333 9.37333 2.07333 9.76 2.58V0.98H12.06V12H9.76V10.36C9.37333 10.88 8.84667 11.3133 8.18 11.66C7.51333 12.0067 6.75333 12.18 5.9 12.18C4.95333 12.18 4.08667 11.94 3.3 11.46C2.51333 10.9667 1.88667 10.2867 1.42 9.42C0.966667 8.54 0.74 7.54667 0.74 6.44ZM9.76 6.48C9.76 5.72 9.6 5.06 9.28 4.5C8.97333 3.94 8.56667 3.51333 8.06 3.22C7.55333 2.92667 7.00667 2.78 6.42 2.78C5.83333 2.78 5.28667 2.92667 4.78 3.22C4.27333 3.5 3.86 3.92 3.54 4.48C3.23333 5.02667 3.08 5.68 3.08 6.44C3.08 7.2 3.23333 7.86667 3.54 8.44C3.86 9.01333 4.27333 9.45333 4.78 9.76C5.3 10.0533 5.84667 10.2 6.42 10.2C7.00667 10.2 7.55333 10.0533 8.06 9.76C8.56667 9.46667 8.97333 9.04 9.28 8.48C9.6 7.90667 9.76 7.24 9.76 6.48Z" fill="#870000"/>
</svg>
