<svg width="24" height="15" viewBox="0 0 24 15" fill="none" xmlns="http://www.w3.org/2000/svg">
<path d="M2 14.75H22C22.6875 14.75 23.25 14.2063 23.25 13.5417C23.25 12.8771 22.6875 12.3333 22 12.3333H2C1.3125 12.3333 0.75 12.8771 0.75 13.5417C0.75 14.2063 1.3125 14.75 2 14.75ZM2 8.70833H22C22.6875 8.70833 23.25 8.16458 23.25 7.5C23.25 6.83542 22.6875 6.29167 22 6.29167H2C1.3125 6.29167 0.75 6.83542 0.75 7.5C0.75 8.16458 1.3125 8.70833 2 8.70833ZM0.75 1.45833C0.75 2.12292 1.3125 2.66667 2 2.66667H22C22.6875 2.66667 23.25 2.12292 23.25 1.45833C23.25 0.79375 22.6875 0.25 22 0.25H2C1.3125 0.25 0.75 0.79375 0.75 1.45833Z" fill="white"/>
</svg>
